
[code]
Hanna 2011 RC BDRiP LiNE XViD AC3 - IMAGiNE

Ripper ...........: IMAGiNE                                      IMDB Rating.......: 7.3/10                             
Video Codec.......: XVID                                         Release Date......: 10/06/11
Audio Codec.......: AC3                                          Theatre Date......: 08/04/11
Audio Bitrate.....: 384                                          Runtime.......: 1h 50mn
Subtitles.........: ENG WHEN NEEDED                              Language..........: ENGLISH
Resolution......: 1280 x 544                                     IMDb URL..........: http://www.imdb.com/title/tt0993842/


DETAILS:
Video
ID                               : 0
Format                           : MPEG-4 Visual
Format profile                   : Advanced Simple@L5
Format settings, BVOP            : 2
Format settings, QPel            : No
Format settings, GMC             : No warppoints
Format settings, Matrix          : Default (MPEG)
Muxing mode                      : Packed bitstream
Codec ID                         : XVID
Codec ID/Hint                    : XviD
Duration                         : 1h 50mn
Bit rate                         : 3 208 Kbps
Width                            : 1 280 pixels
Height                           : 544 pixels
Display aspect ratio             : 2.35:1
Frame rate                       : 23.976 fps
Color space                      : YUV
Chroma subsampling               : 4:2:0
Bit depth                        : 8 bits
Scan type                        : Progressive
Compression mode                 : Lossy
Bits/(Pixel*Frame)               : 0.192
Stream size                      : 2.49 GiB (87%)
Writing library                  : XviD 61

Audio
ID                               : 1
Format                           : AC-3
Format/Info                      : Audio Coding 3
Mode extension                   : CM (complete main)
Codec ID                         : 2000
Duration                         : 1h 50mn
Bit rate mode                    : Constant
Bit rate                         : 448 Kbps
Channel(s)                       : 6 channels
Channel positions                : Front: L C R, Side: L R, LFE
Sampling rate                    : 48.0 KHz
Bit depth                        : 16 bits
Compression mode                 : Lossy
Stream size                      : 356 MiB (12%)
Alignment                        : Aligned on interleaves
Interleave, duration             : 42 ms (1.00 video frame)

Plot;
A 16-year-old who was raised by her father to be the perfect assassin is dispatched on a mission across Europe, tracked by a ruthless intelligence agent and her operatives.

SOURCES:

VIDEO: .............. Hanna 2011 Blu-ray 1080p AVC DTS-HD 5.1 Thanx :D
AUDIO: .............. EP1C Thanx Mate :P

NOTES:
IMAGiNE bringing you another release..........
Hanna 2011 RC BDRiP.........
OK here we are with a nice Hanna for you :D
The source files were nice, 
so we made a script to crop resize and so on......
Sharpened it up a bit and hardcoded english subs when needed :P
Now the source didnt have english audio, 
so we used the audio from our R5 
synced and remuxed to our encode :D
Enjoy Folks!
[/code]
SCREENS: